<mxfile host="app.diagrams.net" modified="2022-05-25T05:45:32.263Z" agent="5.0 (Macintosh; Intel Mac OS X 10_15_7) AppleWebKit/537.36 (KHTML, like Gecko) Chrome/101.0.4951.54 Safari/537.36" etag="8odJFofzl3m4bQ__spFk" version="16.6.4" type="github">
  <diagram id="iFPrayUOstsy7mWOcn4y" name="Page-1">
    <mxGraphModel dx="946" dy="551" grid="1" gridSize="10" guides="1" tooltips="1" connect="1" arrows="1" fold="1" page="1" pageScale="1" pageWidth="850" pageHeight="1100" math="0" shadow="0">
      <root>
        <mxCell id="0" />
        <mxCell id="1" parent="0" />
        <mxCell id="j4uhK3s5fZXecIx1Jz2g-1" value="Glossary Service" style="rounded=0;whiteSpace=wrap;html=1;" vertex="1" parent="1">
          <mxGeometry x="116" y="250" width="120" height="60" as="geometry" />
        </mxCell>
        <mxCell id="j4uhK3s5fZXecIx1Jz2g-2" value="Ingestion Service" style="rounded=0;whiteSpace=wrap;html=1;" vertex="1" parent="1">
          <mxGeometry x="307" y="250" width="120" height="60" as="geometry" />
        </mxCell>
        <mxCell id="j4uhK3s5fZXecIx1Jz2g-3" value="GS Service" style="rounded=0;whiteSpace=wrap;html=1;" vertex="1" parent="1">
          <mxGeometry x="516" y="250" width="120" height="60" as="geometry" />
        </mxCell>
        <mxCell id="j4uhK3s5fZXecIx1Jz2g-4" value="" style="endArrow=classic;html=1;rounded=0;exitX=1;exitY=0.5;exitDx=0;exitDy=0;entryX=0;entryY=0.5;entryDx=0;entryDy=0;" edge="1" parent="1" source="j4uhK3s5fZXecIx1Jz2g-1" target="j4uhK3s5fZXecIx1Jz2g-2">
          <mxGeometry width="50" height="50" relative="1" as="geometry">
            <mxPoint x="366" y="310" as="sourcePoint" />
            <mxPoint x="416" y="260" as="targetPoint" />
          </mxGeometry>
        </mxCell>
        <mxCell id="j4uhK3s5fZXecIx1Jz2g-5" value="" style="endArrow=classic;html=1;rounded=0;exitX=1;exitY=0.5;exitDx=0;exitDy=0;entryX=0;entryY=0.5;entryDx=0;entryDy=0;" edge="1" parent="1" source="j4uhK3s5fZXecIx1Jz2g-2" target="j4uhK3s5fZXecIx1Jz2g-3">
          <mxGeometry width="50" height="50" relative="1" as="geometry">
            <mxPoint x="366" y="310" as="sourcePoint" />
            <mxPoint x="416" y="260" as="targetPoint" />
          </mxGeometry>
        </mxCell>
        <mxCell id="j4uhK3s5fZXecIx1Jz2g-6" value="" style="shape=image;html=1;verticalAlign=top;verticalLabelPosition=bottom;labelBackgroundColor=#ffffff;imageAspect=0;aspect=fixed;image=https://cdn2.iconfinder.com/data/icons/crystalproject/128x128/apps/bug.png" vertex="1" parent="1">
          <mxGeometry x="156" y="222" width="28" height="28" as="geometry" />
        </mxCell>
        <mxCell id="j4uhK3s5fZXecIx1Jz2g-7" value="" style="shape=image;html=1;verticalAlign=top;verticalLabelPosition=bottom;labelBackgroundColor=#ffffff;imageAspect=0;aspect=fixed;image=https://cdn2.iconfinder.com/data/icons/crystalproject/128x128/apps/bug.png" vertex="1" parent="1">
          <mxGeometry x="353" y="222" width="28" height="28" as="geometry" />
        </mxCell>
        <mxCell id="j4uhK3s5fZXecIx1Jz2g-8" value="" style="shape=image;html=1;verticalAlign=top;verticalLabelPosition=bottom;labelBackgroundColor=#ffffff;imageAspect=0;aspect=fixed;image=https://cdn2.iconfinder.com/data/icons/crystalproject/128x128/apps/bug.png" vertex="1" parent="1">
          <mxGeometry x="562" y="222" width="28" height="28" as="geometry" />
        </mxCell>
        <mxCell id="j4uhK3s5fZXecIx1Jz2g-9" value="Events sender" style="whiteSpace=wrap;html=1;shape=mxgraph.basic.oval_callout" vertex="1" parent="1">
          <mxGeometry x="176" y="120" width="160" height="102" as="geometry" />
        </mxCell>
        <mxCell id="j4uhK3s5fZXecIx1Jz2g-10" value="1. Store Service&lt;br&gt;2. Ergo query expansion&lt;br&gt;3. ES augmentation" style="whiteSpace=wrap;html=1;shape=mxgraph.basic.oval_callout" vertex="1" parent="1">
          <mxGeometry x="366" y="120" width="170" height="102" as="geometry" />
        </mxCell>
        <mxCell id="j4uhK3s5fZXecIx1Jz2g-11" value="GS events consumer" style="whiteSpace=wrap;html=1;shape=mxgraph.basic.oval_callout" vertex="1" parent="1">
          <mxGeometry x="562" y="120" width="160" height="102" as="geometry" />
        </mxCell>
      </root>
    </mxGraphModel>
  </diagram>
</mxfile>
